<?xml version="1.0" encoding="utf-8"?>
<!-- Generator: Adobe Illustrator 17.1.0, SVG Export Plug-In . SVG Version: 6.00 Build 0)  -->
<!DOCTYPE svg PUBLIC "-//W3C//DTD SVG 1.1//EN" "http://www.w3.org/Graphics/SVG/1.1/DTD/svg11.dtd">
<svg version="1.1" id="Layer_1" xmlns="http://www.w3.org/2000/svg" xmlns:xlink="http://www.w3.org/1999/xlink" x="0px" y="0px"
	 viewBox="0 0 153.172 29" enable-background="new 0 0 153.172 29" xml:space="preserve">
<g>
	<g>
		<g>
			<path fill="#FFFFFF" d="M51.723,22.377v0.487H48.34l-4.991-6.998h-4.417v6.998h-3.356V2.788h8.289
				c4.36,0,6.969,2.954,6.969,6.539c0,2.782-1.663,5.105-4.216,6.023L51.723,22.377z M43.836,13.113c2.18,0,3.758-1.577,3.758-3.757
				c0-2.093-1.549-3.671-3.758-3.671h-4.962v7.428H43.836z"/>
			<path fill="#FFFFFF" d="M66.892,16.526h-10.21c0,2.523,1.979,4.014,4.504,4.014c1.72,0.086,3.384-0.143,5.019-0.86l0.401,2.323
				c-1.606,0.717-3.47,1.175-5.22,1.175c-4.56,0.087-7.916-2.839-7.772-7.514c0.086-4.617,3.413-6.941,7.17-6.941
				C65.63,8.725,67.809,11.937,66.892,16.526z M56.739,14.317h7.629c0.086-2.093-1.635-3.183-3.614-3.183
				C58.689,11.134,57.169,12.138,56.739,14.317z"/>
			<path fill="#FFFFFF" d="M73.197,1.87v16.032c0,2.295,0.603,3.012,2.983,2.639l0.115,2.41c-4.245,0.688-6.195-0.402-6.195-5.02
				V1.87H73.197z"/>
			<path fill="#FFFFFF" d="M83.252,23.122c-2.524,0-4.962-1.607-4.962-4.302c-0.086-3.298,2.323-4.876,5.363-4.876
				c1.347,0,2.867,0.344,4.101,1.033V13.6c0-3.642-6.223-2.438-7.944-1.577l-0.459-2.238c1.406-0.717,3.27-1.09,5.106-1.09
				c3.355,0,6.337,1.176,6.337,4.99v5.45c0,1.29-0.058,2.122,1.435,1.979l0.057,1.778c-2.18,0.373-3.872,0.373-3.958-2.352
				C87.41,22.377,85.202,23.122,83.252,23.122z M87.755,16.985c-1.032-0.602-2.351-0.975-3.585-0.947
				c-1.52,0.029-2.811,0.918-2.811,2.61c0,1.377,1.262,2.008,2.524,2.008c1.635,0,3.557-0.774,3.872-2.525V16.985z"/>
			<path fill="#FFFFFF" d="M98.869,9.069h4.79v2.238h-4.79v6.223c0,3.527,2.208,3.756,5.047,2.753l0.316,2.352
				C99.5,24.097,95.8,23.008,95.8,17.586v-6.28l-2.741-0.201V9.069H95.8l0.316-4.273h2.754V9.069z"/>
			<path fill="#FFFFFF" d="M118.986,16.526h-10.21c0,2.523,1.979,4.014,4.502,4.014c1.722,0.086,3.385-0.143,5.019-0.86l0.402,2.323
				c-1.607,0.717-3.471,1.175-5.221,1.175c-4.56,0.087-7.915-2.839-7.773-7.514c0.086-4.617,3.413-6.941,7.17-6.941
				C117.724,8.725,119.904,11.937,118.986,16.526z M108.833,14.317h7.629c0.086-2.093-1.634-3.183-3.613-3.183
				C110.782,11.134,109.263,12.138,108.833,14.317z"/>
			<path fill="#FFFFFF" d="M131.264,20.168v2.696h-9.694v-2.696h3.183V5.455h-2.925V2.788h9.178v2.667h-2.926v14.713H131.264z"/>
			<path fill="#FFFFFF" d="M153.144,23.065h-3.041l-1.176-1.807c-1.749,1.234-3.843,1.894-6.109,1.865
				c-5.506,0-10.095-4.045-10.095-10.325c0-6.167,4.187-10.383,10.239-10.383c5.421,0,10.21,3.843,10.21,10.383
				c0,2.639-0.717,4.818-2.065,6.511l2.036,3.241V23.065z M142.962,20.025c3.757,0,6.855-2.381,6.855-7.228
				c0-4.704-3.098-7.257-6.884-7.257c-3.728,0-6.825,2.668-6.825,7.257C136.108,17.472,139.205,20.025,142.962,20.025z"/>
		</g>
	</g>
	<g>
		<g>
			<path fill="#67BBAA" d="M16.635,28.798c0.394-0.231,1.868-1.171,2.174-1.34c0.305-0.169,0.295-0.684,0.006-0.857
				c-0.289-0.175-5.233-3.087-10.058-6.378c-2.872-1.959-4.872-4.823-4.872-8.058c0-4.56,3.71-8.279,8.27-8.279
				c4.56,0,8.289,3.44,8.289,8.001c0,1.23-0.34,2.652-0.84,3.725c-0.098,0.208-0.204,0.396-0.316,0.61
				c-0.142,0.273-0.099,0.543,0.179,0.709c0.278,0.165,1.541,0.876,2.098,1.171c0.471,0.249,0.74,0.199,0.979-0.133
				c1.102-1.529,1.785-3.9,1.785-6.082C24.328,5.183,18.857,0,12.155,0C5.453,0,0,5.462,0,12.164c0,4.332,1.836,7.739,6.258,10.94
				c1.857,1.345,8.754,5.488,9.159,5.711C15.877,29.068,16.186,29.061,16.635,28.798z"/>
			<path fill="#67BBAA" d="M20.44,20.203c-0.322-0.207-2.164-1.285-2.453-1.454c-0.287-0.168-0.566-0.217-0.958,0.098
				c-0.587,0.473-1.202,0.84-2.153,1.402c-0.369,0.218-0.412,0.604-0.075,0.826c0.447,0.295,1.858,1.086,2.217,1.318
				c0.417,0.268,0.7,0.302,1.007,0.131c0.655-0.365,1.848-1.059,2.47-1.646C20.656,20.727,20.762,20.408,20.44,20.203z"/>
		</g>
	</g>
</g>
</svg>
